<?xml version="1.0" ?><svg height="200" id="svg2" version="1.1" width="200" xmlns="http://www.w3.org/2000/svg" xmlns:cc="http://creativecommons.org/ns#" xmlns:dc="http://purl.org/dc/elements/1.1/" xmlns:inkscape="http://www.inkscape.org/namespaces/inkscape" xmlns:rdf="http://www.w3.org/1999/02/22-rdf-syntax-ns#" xmlns:sodipodi="http://sodipodi.sourceforge.net/DTD/sodipodi-0.dtd" xmlns:svg="http://www.w3.org/2000/svg"><defs id="defs4"><clipPath clipPathUnits="userSpaceOnUse" id="clipPath18"><path d="m 0,551.986 530.973,0 L 530.973,0 0,0 0,551.986 z" id="path20"/></clipPath><clipPath clipPathUnits="userSpaceOnUse" id="clipPath18-7"><path d="m 0,551.986 530.973,0 L 530.973,0 0,0 0,551.986 z" id="path20-4"/></clipPath></defs><g id="layer1" style="display:inline" transform="translate(0,-852.36218)"><path d="m 100,10 c -49.70563,0 -90,40.29437 -90,90 0,49.70572 40.29437,90 90,90 0.75044,0 1.47964,-0.084 2.21875,-0.125 0.26003,-0.014 0.52093,-0.0182 0.78125,-0.0312 0.93792,-0.046 1.87645,-0.096 2.8125,-0.15625 0.96378,-0.062 1.89076,-0.24545 2.84375,-0.34375 2.0633,-0.2128 4.13392,-0.4029 6.15625,-0.75 0.78624,-0.13493 1.53236,-0.37838 2.3125,-0.53125 2.60227,-0.50991 5.20544,-1.02204 7.71875,-1.75 5.67307,-1.6433 11.11833,-3.782 16.28125,-6.4375 18.08925,-9.3041 32.44221,-24.61048 40.78125,-43.21875 0.0631,-0.14086 0.15632,-0.26501 0.21875,-0.40625 1.70139,-3.84911 3.2178,-7.79522 4.375,-11.90625 0.46009,-1.63449 0.77841,-3.32241 1.125,-5 0.16252,-0.78665 0.37485,-1.55459 0.53125,-2.34375 0.1628,-0.82145 0.4264,-1.606 0.5625,-2.4375 0.31126,-1.90166 0.40556,-3.87224 0.59375,-5.8125 0.17397,-1.79362 0.45022,-3.55437 0.53125,-5.375 0.05,-1.12451 0.15625,-2.23807 0.15625,-3.375 0,-3.65022 -0.29637,-7.21352 -0.71875,-10.75 -0.0857,-0.71775 -0.24127,-1.41252 -0.34375,-2.125 C 182.66932,43.54488 145.31458,10 100,10 z" id="path7037" style="fill:#007bb6;fill-opacity:1;stroke:none" transform="translate(0,852.36218)"/><path d="" id="path6013" style="fill:#000000"/><path d="" id="path6011" style="fill:#000000"/><path d="" id="path6009" style="fill:#000000"/></g><g id="layer16" style="display:inline"/><g id="layer15" style="display:inline"><path d="M 99,9.9999995 C 49.294369,9.9999995 9,50.294369 9,99.999998 9,149.70566 49.29437,190 99,190 L 99,9.9999995 z" id="rect2995" style="opacity:0.15;fill:#ffffff;fill-opacity:1;fill-rule:nonzero;stroke:none;display:inline"/><g id="g3" style="fill:#ececec" transform="matrix(2.0232676,0,0,2.0232676,42.930702,40.240768)"><path d="M 49.265,4.667 H 7.145 c -2.016,0 -3.651,1.596 -3.651,3.563 v 42.613 c 0,1.966 1.635,3.562 3.651,3.562 h 42.12 c 2.019,0 3.654,-1.597 3.654,-3.562 V 8.23 c 0,-1.968 -1.636,-3.563 -3.654,-3.563 z M 18.475,46.304 H 11.01 V 23.845 h 7.465 V 46.304 z M 14.743,20.777 h -0.05 c -2.504,0 -4.124,-1.725 -4.124,-3.88 0,-2.203 1.67,-3.88 4.223,-3.88 2.554,0 4.125,1.677 4.175,3.88 0,2.155 -1.622,3.88 -4.224,3.88 z M 45.394,46.304 H 37.929 V 34.286 c 0,-3.018 -1.08,-5.078 -3.781,-5.078 -2.062,0 -3.29,1.389 -3.831,2.731 -0.197,0.479 -0.245,1.149 -0.245,1.821 v 12.543 h -7.465 c 0,0 0.098,-20.354 0,-22.459 h 7.465 v 3.179 c 0.992,-1.53 2.766,-3.709 6.729,-3.709 4.911,0 8.594,3.211 8.594,10.11 v 12.88 z" id="path7" style="fill:#ececec"/><path d="m 30.071,27.101 v -0.077 c -0.016,0.026 -0.033,0.052 -0.05,0.077 h 0.05 z" id="path5" style="fill:#ececec"/></g></g></svg>